<?xml version="1.0" encoding="UTF-8"?>
<svg xmlns="http://www.w3.org/2000/svg" xmlns:xlink="http://www.w3.org/1999/xlink" width="434.75pt" height="196.87pt" viewBox="0 0 434.75 196.87" version="1.1">
<defs>
<clipPath id="clip1">
  <path d="M 0 155 L 270 155 L 270 196.871094 L 0 196.871094 Z M 0 155 "/>
</clipPath>
<clipPath id="clip2">
  <path d="M 274 156 L 434.75 156 L 434.75 196 L 274 196 Z M 274 156 "/>
</clipPath>
</defs>
<g id="surface1">
<path style=" stroke:none;fill-rule:evenodd;fill:rgb(92.498779%,12.5%,15.299988%);fill-opacity:1;" d="M 305.460938 58.851563 L 246.804688 -0.00390625 L 217.371094 29.425781 L 246.804688 58.851563 L 217.371094 88.273438 L 246.804688 117.511719 Z M 217.371094 29.425781 L 188.140625 58.851563 L 217.371094 88.273438 L 188.140625 117.511719 L 129.289063 58.851563 L 188.140625 -0.00390625 L 217.371094 29.425781 "/>
<g clip-path="url(#clip1)" clip-rule="nonzero">
<path style=" stroke:none;fill-rule:evenodd;fill:rgb(92.498779%,12.5%,15.299988%);fill-opacity:1;" d="M 196.496094 196.871094 L 196.496094 187.945313 C 199.53125 187.945313 201.804688 186.804688 203.898438 184.71875 C 205.792969 182.4375 206.742188 179.78125 206.742188 176.367188 C 206.742188 173.140625 205.792969 170.484375 203.898438 168.203125 C 201.804688 165.929688 199.339844 164.972656 196.496094 164.972656 L 196.496094 155.863281 C 199.339844 155.863281 201.996094 156.433594 204.46875 157.378906 C 207.121094 158.519531 209.398438 160.042969 211.300781 161.933594 C 213.386719 163.839844 214.714844 165.929688 215.855469 168.585938 C 216.808594 171.050781 217.371094 173.519531 217.371094 176.367188 C 217.371094 179.214844 216.808594 181.867188 215.855469 184.339844 C 214.90625 186.804688 213.386719 189.089844 211.300781 190.980469 C 209.398438 192.882813 207.121094 194.40625 204.46875 195.347656 C 201.996094 196.492188 199.339844 196.871094 196.496094 196.871094 Z M 269.011719 195.917969 L 259.136719 195.917969 L 256.671875 179.023438 C 256.671875 177.882813 256.480469 176.367188 256.292969 175.039063 C 256.101563 173.519531 256.101563 172 255.910156 170.289063 C 255.722656 171.808594 255.15625 173.894531 254.398438 176.367188 C 254.398438 176.9375 254.207031 177.316406 254.207031 177.507813 L 248.890625 195.917969 L 241.679688 195.917969 L 236.359375 177.507813 C 236.359375 177.316406 236.171875 176.9375 235.980469 176.367188 C 235.21875 173.894531 234.839844 171.808594 234.652344 170.289063 C 234.464844 171.808594 234.265625 173.140625 234.265625 174.65625 C 234.078125 176.175781 233.894531 177.507813 233.703125 179.023438 L 231.421875 195.917969 L 221.546875 195.917969 L 227.433594 156.816406 L 238.070313 156.816406 L 243.949219 176.9375 C 243.949219 177.128906 244.140625 177.316406 244.140625 177.691406 C 244.714844 179.402344 245.09375 180.925781 245.285156 182.257813 C 245.285156 181.496094 245.472656 180.734375 245.664063 179.972656 C 245.84375 179.023438 246.046875 178.078125 246.425781 176.9375 L 252.496094 156.816406 L 262.933594 156.816406 Z M 8.734375 195.917969 L 8.734375 165.929688 L 0 165.929688 L 0 156.816406 L 28.09375 156.816406 L 28.09375 165.929688 L 19.363281 165.929688 L 19.363281 195.917969 Z M 196.496094 155.863281 L 196.496094 164.972656 C 193.460938 164.972656 191.175781 165.929688 189.085938 168.203125 C 187.191406 170.289063 186.238281 173.140625 186.238281 176.367188 C 186.238281 179.78125 187.191406 182.4375 189.085938 184.71875 C 190.988281 186.804688 193.460938 187.945313 196.496094 187.945313 L 196.496094 196.871094 C 193.640625 196.871094 190.988281 196.492188 188.515625 195.347656 C 185.859375 194.40625 183.582031 192.882813 181.683594 190.980469 C 179.597656 189.089844 178.078125 186.804688 177.125 184.339844 C 175.992188 181.867188 175.609375 179.214844 175.609375 176.367188 C 175.609375 173.519531 175.992188 171.050781 177.125 168.585938 C 178.078125 166.113281 179.597656 163.839844 181.683594 161.933594 C 183.582031 160.042969 185.859375 158.519531 188.515625 157.378906 C 190.988281 156.433594 193.640625 155.863281 196.496094 155.863281 Z M 33.414063 195.917969 L 33.414063 156.816406 L 57.339844 156.816406 L 57.339844 165.351563 L 43.859375 165.351563 L 43.859375 172.191406 L 56.574219 172.191406 L 56.574219 180.546875 L 43.859375 180.546875 L 43.859375 187.1875 L 57.339844 187.1875 L 57.339844 195.917969 Z M 92.839844 158.335938 L 92.839844 169.910156 C 91.316406 168.394531 89.984375 167.0625 88.472656 166.308594 C 86.941406 165.550781 85.429688 165.167969 83.722656 165.167969 C 80.6875 165.167969 78.214844 166.308594 76.3125 168.394531 C 74.417969 170.484375 73.46875 173.140625 73.46875 176.558594 C 73.46875 179.78125 74.417969 182.257813 76.3125 184.339844 C 78.40625 186.433594 80.871094 187.566406 83.722656 187.566406 C 85.429688 187.566406 86.941406 187.1875 88.472656 186.433594 C 89.984375 185.664063 91.316406 184.339844 92.839844 182.820313 L 92.839844 194.40625 C 91.128906 195.347656 89.414063 195.917969 87.710938 196.300781 C 86.007813 196.679688 84.484375 196.871094 82.773438 196.871094 C 80.492188 196.871094 78.597656 196.679688 76.695313 196.109375 C 74.988281 195.730469 73.277344 194.785156 71.757813 193.835938 C 68.917969 191.933594 66.636719 189.46875 65.117188 186.433594 C 63.601563 183.390625 62.839844 180.164063 62.839844 176.367188 C 62.839844 173.324219 63.222656 170.671875 64.171875 168.203125 C 65.117188 165.730469 66.636719 163.457031 68.722656 161.554688 C 70.433594 159.660156 72.519531 158.140625 74.988281 157.195313 C 77.265625 156.246094 79.730469 155.863281 82.773438 155.863281 C 84.484375 155.863281 86.007813 156.054688 87.710938 156.433594 C 89.414063 156.816406 91.128906 157.378906 92.839844 158.335938 Z M 98.910156 195.917969 L 98.910156 156.816406 L 109.546875 156.816406 L 109.546875 172 L 123.78125 172 L 123.78125 156.816406 L 134.40625 156.816406 L 134.40625 195.917969 L 123.78125 195.917969 L 123.78125 179.972656 L 109.546875 179.972656 L 109.546875 195.917969 Z M 171.242188 158.335938 L 171.242188 169.910156 C 169.722656 168.394531 168.203125 167.0625 166.878906 166.308594 C 165.355469 165.550781 163.835938 165.167969 162.121094 165.167969 C 159.09375 165.167969 156.621094 166.308594 154.726563 168.394531 C 152.824219 170.484375 151.875 173.140625 151.875 176.558594 C 151.875 179.78125 152.824219 182.257813 154.726563 184.339844 C 156.621094 186.433594 159.09375 187.566406 162.121094 187.566406 C 163.835938 187.566406 165.355469 187.1875 166.878906 186.433594 C 168.203125 185.664063 169.722656 184.339844 171.242188 182.820313 L 171.242188 194.40625 C 169.53125 195.347656 167.820313 195.917969 166.117188 196.300781 C 164.40625 196.679688 162.699219 196.871094 160.988281 196.871094 C 158.902344 196.871094 157.003906 196.679688 155.109375 196.109375 C 153.394531 195.730469 151.683594 194.785156 150.171875 193.835938 C 147.128906 191.933594 145.042969 189.46875 143.332031 186.433594 C 141.816406 183.390625 141.058594 180.164063 141.058594 176.367188 C 141.058594 173.324219 141.628906 170.671875 142.570313 168.203125 C 143.519531 165.730469 145.042969 163.457031 146.9375 161.554688 C 148.839844 159.660156 150.921875 158.140625 153.207031 157.195313 C 155.679688 156.246094 158.144531 155.863281 160.988281 155.863281 C 162.699219 155.863281 164.40625 156.054688 166.117188 156.433594 C 167.820313 156.816406 169.53125 157.378906 171.242188 158.335938 "/>
</g>
<g clip-path="url(#clip2)" clip-rule="nonzero">
<path style=" stroke:none;fill-rule:evenodd;fill:rgb(13.299561%,12.199402%,12.5%);fill-opacity:1;" d="M 327.484375 188.898438 L 327.484375 181.304688 L 332.804688 181.304688 L 328.816406 168.394531 C 328.628906 168.015625 328.4375 167.445313 328.238281 166.492188 C 328.054688 165.730469 327.675781 164.597656 327.484375 163.265625 L 327.484375 156.816406 L 334.132813 156.816406 L 347.617188 195.917969 L 336.980469 195.917969 L 334.898438 188.898438 Z M 351.40625 195.917969 L 351.40625 156.816406 L 361.660156 156.816406 L 376.464844 176.9375 C 376.65625 177.316406 377.226563 178.261719 377.796875 179.402344 C 378.554688 180.734375 379.308594 182.058594 380.070313 183.769531 C 379.886719 182.257813 379.699219 180.734375 379.507813 179.59375 C 379.507813 178.261719 379.308594 177.128906 379.308594 176.175781 L 379.308594 156.816406 L 389.566406 156.816406 L 389.566406 195.917969 L 379.308594 195.917969 L 364.507813 175.796875 C 364.316406 175.417969 363.75 174.464844 363.175781 173.324219 C 362.410156 172 361.847656 170.484375 361.089844 168.964844 C 361.28125 170.484375 361.46875 172 361.46875 173.324219 C 361.660156 174.464844 361.660156 175.605469 361.660156 176.558594 L 361.660156 195.917969 Z M 398.109375 195.917969 L 398.109375 156.816406 L 408.554688 156.816406 L 408.554688 174.65625 L 421.078125 156.816406 L 433.414063 156.816406 L 418.992188 175.988281 L 434.746094 195.917969 L 421.464844 195.917969 L 408.554688 178.460938 L 408.554688 195.917969 Z M 288.949219 172.378906 C 290.273438 172.191406 291.417969 172 291.988281 171.621094 C 292.929688 171.050781 293.503906 169.910156 293.503906 168.585938 C 293.503906 167.0625 293.121094 166.113281 292.171875 165.351563 C 291.417969 164.972656 290.46875 164.789063 288.949219 164.597656 L 288.949219 156.816406 C 291.417969 156.816406 293.3125 156.996094 294.640625 157.195313 C 296.355469 157.570313 297.867188 157.949219 299.199219 158.710938 C 300.523438 159.472656 301.664063 160.609375 302.425781 161.933594 C 303.1875 163.265625 303.566406 164.789063 303.566406 166.492188 C 303.566406 168.773438 302.996094 170.671875 301.855469 171.808594 C 300.722656 173.140625 298.820313 174.28125 296.355469 174.84375 C 299.199219 175.039063 301.480469 175.988281 302.996094 177.882813 C 304.519531 179.59375 305.269531 181.867188 305.269531 184.71875 C 305.269531 186.804688 304.898438 188.707031 303.941406 190.230469 C 303.1875 191.933594 301.855469 193.074219 300.148438 194.023438 C 298.820313 194.785156 297.304688 195.160156 295.214844 195.546875 C 293.890625 195.730469 291.796875 195.917969 288.949219 195.917969 L 288.949219 187.945313 C 291.035156 187.945313 292.558594 187.566406 293.503906 186.996094 C 294.640625 186.433594 295.214844 185.292969 295.214844 183.769531 C 295.214844 182.257813 294.640625 181.113281 293.691406 180.355469 C 292.742188 179.78125 291.226563 179.402344 288.949219 179.402344 Z M 327.484375 156.816406 L 327.484375 163.265625 C 327.484375 163.078125 327.484375 163.078125 327.484375 163.078125 C 327.105469 164.027344 326.914063 164.972656 326.726563 165.929688 C 326.542969 166.683594 326.34375 167.632813 325.972656 168.394531 L 322.167969 181.304688 L 327.484375 181.304688 L 327.484375 188.898438 L 319.894531 188.898438 L 317.800781 195.917969 L 307.171875 195.917969 L 320.648438 156.816406 Z M 284.578125 172.378906 L 286.859375 172.378906 C 287.621094 172.378906 288.191406 172.378906 288.949219 172.378906 L 288.949219 179.402344 C 288.753906 179.402344 288.5625 179.402344 288.382813 179.402344 L 284.578125 179.402344 L 284.578125 187.945313 L 288.191406 187.945313 C 288.382813 187.945313 288.753906 187.945313 288.949219 187.945313 L 288.949219 195.917969 C 287.992188 195.917969 287.042969 195.917969 285.71875 195.917969 L 274.710938 195.917969 L 274.710938 156.816406 L 285.527344 156.816406 C 286.859375 156.816406 287.804688 156.816406 288.949219 156.816406 L 288.949219 164.597656 C 288.382813 164.597656 287.621094 164.597656 286.859375 164.597656 L 284.578125 164.597656 L 284.578125 172.378906 "/>
</g>
<path style=" stroke:none;fill-rule:evenodd;fill:rgb(92.498779%,12.5%,15.299988%);fill-opacity:1;" d="M 300.523438 112.386719 C 300.902344 112.386719 301.09375 112.195313 301.285156 112.195313 C 301.480469 112.007813 301.664063 111.632813 301.664063 111.25 C 301.664063 110.871094 301.480469 110.492188 301.285156 110.300781 C 301.09375 110.300781 300.902344 110.109375 300.523438 110.109375 L 300.523438 109.542969 C 301.09375 109.542969 301.480469 109.730469 301.664063 109.921875 C 302.046875 110.300781 302.234375 110.679688 302.234375 111.25 C 302.234375 111.816406 302.046875 112.195313 301.664063 112.386719 C 301.480469 112.765625 301.09375 112.957031 300.523438 112.957031 Z M 300.523438 117.511719 C 303.1875 117.511719 305.460938 115.421875 305.460938 112.574219 C 305.460938 109.921875 303.1875 107.832031 300.523438 107.832031 L 300.523438 108.210938 C 302.996094 108.210938 305.078125 110.109375 305.078125 112.574219 C 305.078125 115.238281 302.996094 117.132813 300.523438 117.132813 Z M 300.523438 113.71875 L 300.523438 112.957031 L 302.804688 115.992188 L 302.046875 115.992188 Z M 299.578125 110.109375 L 299.578125 112.386719 L 300.148438 112.386719 C 300.335938 112.386719 300.335938 112.386719 300.523438 112.386719 L 300.523438 113.71875 L 299.960938 112.957031 L 299.578125 112.957031 L 299.578125 115.992188 L 299.011719 115.992188 L 299.011719 109.542969 L 300.148438 109.542969 C 300.335938 109.542969 300.335938 109.542969 300.523438 109.542969 L 300.523438 110.109375 C 300.335938 110.109375 300.335938 110.109375 300.148438 110.109375 Z M 300.523438 107.832031 C 297.867188 107.832031 295.59375 109.921875 295.59375 112.574219 C 295.59375 115.421875 297.867188 117.511719 300.523438 117.511719 L 300.523438 117.132813 C 298.058594 117.132813 295.964844 115.238281 295.964844 112.574219 C 295.964844 110.109375 298.058594 108.210938 300.523438 108.210938 L 300.523438 107.832031 "/>
</g>
</svg>
